# xmcd CD database file
#
# Track frame offsets:
#	150
#	37230
#	89855
#	135492
#	188530
#	232337
#
# Disc length: 3610 seconds
#
# Revision: 0
# Processed by: cddbd v1.5.1PL0 Copyright (c) Steve Scherf et al.
# Submitted via: CDex 1.60beta1
#
DISCID=550e1806
DTITLE=Dave Austin - Incantations
DYEAR=0
DGENRE=New Age
TTITLE0=Terra Incognita
TTITLE1=Incantations
TTITLE2=Sacred Cave
TTITLE3=Involution
TTITLE4=The Great Dark
TTITLE5=Fertility
EXTD=YEAR: 0
EXTT0=
EXTT1=
EXTT2=
EXTT3=
EXTT4=
EXTT5=
PLAYORDER=
